<svg version="1.1" id="Слой_1" xmlns="http://www.w3.org/2000/svg" xmlns:xlink="http://www.w3.org/1999/xlink" x="0px" y="0px" width="495px" height="108px" viewBox="0 0 495 108" enable-background="new 0 0 495 108" xml:space="preserve">
  <g id="miu">
    <g id="editor_list_view_hambuger_menu_glyph">
      <g>
        <path id="path-1" fill="#FFFFFF" d="M1.1,0C0.5,0,0,0.4,0,1v2c0,0.6,0.5,1,1.1,1h47.7c0.6,0,1.1-0.4,1.1-1V1c0-0.6-0.5-1-1.1-1 H1.1z M1.1,10C0.5,10,0,10.4,0,11v2c0,0.6,0.5,1,1.1,1h47.7c0.6,0,1.1-0.4,1.1-1v-2c0-0.6-0.5-1-1.1-1H1.1z M1.1,20 C0.5,20,0,20.4,0,21v2c0,0.6,0.5,1,1.1,1h47.7c0.6,0,1.1-0.4,1.1-1v-2c0-0.6-0.5-1-1.1-1H1.1z"/>
      </g>
      <g>
        <path id="path-1_1_" fill="#FFFFFF" d="M1.1,0C0.5,0,0,0.4,0,1v2c0,0.6,0.5,1,1.1,1h47.7c0.6,0,1.1-0.4,1.1-1V1 c0-0.6-0.5-1-1.1-1H1.1z M1.1,10C0.5,10,0,10.4,0,11v2c0,0.6,0.5,1,1.1,1h47.7c0.6,0,1.1-0.4,1.1-1v-2c0-0.6-0.5-1-1.1-1H1.1z M1.1,20C0.5,20,0,20.4,0,21v2c0,0.6,0.5,1,1.1,1h47.7c0.6,0,1.1-0.4,1.1-1v-2c0-0.6-0.5-1-1.1-1H1.1z"/>
      </g>
    </g>
  </g>
  <g id="miu_1_">
    <g id="editor_list_view_hambuger_menu_glyph_1_">
      <g>
        <path id="path-1_3_" fill="#D22856" d="M1.1,26C0.5,26,0,26.4,0,27v2c0,0.6,0.5,1,1.1,1h47.7c0.6,0,1.1-0.4,1.1-1v-2 c0-0.6-0.5-1-1.1-1H1.1z M1.1,36C0.5,36,0,36.4,0,37v2c0,0.6,0.5,1,1.1,1h47.7c0.6,0,1.1-0.4,1.1-1v-2c0-0.6-0.5-1-1.1-1H1.1z M1.1,46C0.5,46,0,46.4,0,47v2c0,0.6,0.5,1,1.1,1h47.7c0.6,0,1.1-0.4,1.1-1v-2c0-0.6-0.5-1-1.1-1H1.1z"/>
      </g>
      <g>
        <path id="path-1_2_" fill="#D22856" d="M1.1,26C0.5,26,0,26.4,0,27v2c0,0.6,0.5,1,1.1,1h47.7c0.6,0,1.1-0.4,1.1-1v-2 c0-0.6-0.5-1-1.1-1H1.1z M1.1,36C0.5,36,0,36.4,0,37v2c0,0.6,0.5,1,1.1,1h47.7c0.6,0,1.1-0.4,1.1-1v-2c0-0.6-0.5-1-1.1-1H1.1z M1.1,46C0.5,46,0,46.4,0,47v2c0,0.6,0.5,1,1.1,1h47.7c0.6,0,1.1-0.4,1.1-1v-2c0-0.6-0.5-1-1.1-1H1.1z"/>
      </g>
    </g>
  </g>
  <path fill="#FFFFFF" d="M66.1,11.9l8.6-8.6C75,3,75,2.5,74.7,2.2l-2.1-2.1C72.4,0.1,72.2,0,72,0s-0.4,0.1-0.5,0.2l-8.6,8.6l-8.6-8.6	c-0.3-0.3-0.8-0.3-1.1,0l-2.1,2.1c-0.3,0.3-0.3,0.8,0,1.1l8.6,8.6l-8.6,8.6c-0.3,0.3-0.3,0.8,0,1.1l2.1,2.1c0.1,0.1,0.3,0.2,0.5,0.2	s0.4-0.1,0.5-0.2l8.6-8.6l8.6,8.6c0.1,0.1,0.3,0.2,0.5,0.2s0.4-0.1,0.5-0.2l2.1-2.1c0.3-0.3,0.3-0.8,0-1.1L66.1,11.9z"/>
  <path fill="#D22856" d="M66.1,36.9l8.6-8.6c0.3-0.3,0.3-0.8,0-1.1l-2.1-2.1c-0.2,0-0.4-0.1-0.6-0.1s-0.4,0.1-0.5,0.2l-8.6,8.6	l-8.6-8.6c-0.3-0.3-0.8-0.3-1.1,0l-2.1,2.1c-0.3,0.3-0.3,0.8,0,1.1l8.6,8.6l-8.6,8.6c-0.3,0.3-0.3,0.8,0,1.1l2.1,2.1	c0.1,0.1,0.3,0.2,0.5,0.2s0.4-0.1,0.5-0.2l8.6-8.6l8.6,8.6c0.1,0.1,0.3,0.2,0.5,0.2s0.4-0.1,0.5-0.2l2.1-2.1c0.3-0.3,0.3-0.8,0-1.1	L66.1,36.9z"/>
  <path fill="#FFFFFF" d="M114.6,30.1c0.1,8.6,7.5,11.4,7.6,11.5c-0.1,0.2-1.2,4.1-3.9,8.1c-2.4,3.5-4.8,6.9-8.7,7	c-3.8,0.1-5-2.3-9.4-2.3s-5.7,2.2-9.3,2.3c-3.7,0.1-6.6-3.7-9-7.2c-4.9-7-8.6-19.9-3.6-28.6c2.5-4.3,6.9-7,11.7-7.1	c3.7-0.1,7.1,2.5,9.4,2.5c2.2,0,6.4-3,10.9-2.6c1.8,0.1,7,0.7,10.4,5.6C120.5,19.5,114.5,23,114.6,30.1 M107.5,9.1	c2-2.4,3.3-5.7,3-9.1c-2.9,0.1-6.3,1.9-8.4,4.3c-1.8,2.1-3.4,5.5-3,8.8C102.2,13.3,105.5,11.5,107.5,9.1"/>
  <g>
    <path fill="#A4C639" d="M158.1,14h-26.2c0,0.1,0,0.2,0,0.3v18.8c0,1.9,1.5,3.5,3.3,3.6v7.4c0,1.6,1.3,2.9,2.9,2.9 c1.6,0,2.9-1.3,2.9-2.9v-7.4h8.1v7.4c0,1.6,1.3,2.9,2.9,2.9c1.6,0,2.9-1.3,2.9-2.9v-7.4c1.9-0.1,3.3-1.7,3.3-3.6V14.3 C158.2,14.2,158.2,14.1,158.1,14z"/>
    <path id="c-4-9-2-9-2-9" fill="#A4C639" d="M126.9,15.7L126.9,15.7c1.6,0,2.9,1.3,2.9,2.9V31c0,1.6-1.3,2.9-2.9,2.9l0,0 c-1.6,0-2.9-1.3-2.9-2.9V18.6C124,17,125.3,15.7,126.9,15.7z"/>
    <path id="c-4-1-7-3-8-4" fill="#A4C639" d="M163.2,15.7L163.2,15.7c1.6,0,2.9,1.3,2.9,2.9V31c0,1.6-1.3,2.9-2.9,2.9l0,0 c-1.6,0-2.9-1.3-2.9-2.9V18.6C160.3,17,161.6,15.7,163.2,15.7z"/>
    <path fill="#A4C639" d="M132,12h26c0-2.8-1.2-5.3-3.2-7.3l2.4-4.2c0.1-0.1,0-0.3-0.1-0.4s-0.3,0-0.4,0.1l-2.4,4.1 c-2.1-1.9-6.2-3.4-9.4-3.4l0,0c-3,0-7.3,1.5-9.4,3.4l-2.4-4.1C133.2,0,133,0,132.9,0c-0.1,0.1-0.2,0.3-0.1,0.4l2.4,4.2 C133.3,6.6,132.1,9.2,132,12z M149.3,6.8c0-0.8,0.7-1.5,1.5-1.5s1.5,0.6,1.5,1.5l0,0c0,0.8-0.7,1.5-1.5,1.5S149.3,7.6,149.3,6.8 L149.3,6.8z M138.2,6.8c0-0.8,0.7-1.5,1.5-1.5s1.5,0.6,1.5,1.5l0,0c0,0.8-0.7,1.5-1.5,1.5S138.2,7.6,138.2,6.8L138.2,6.8z"/>
  </g>
  <g>
    <path id="path5058" fill="#F05423" d="M188.9,20H168V0h20.9V20z"/>
    <path id="path5060" fill="#84C441" d="M211.9,20H191V0h20.9V20z"/>
    <path id="path5062" fill="#2DABE2" d="M188.9,42H168V22h20.9V42z"/>
    <path id="path5064" fill="#F9BC15" d="M211.9,42H191V22h20.9V42z"/>
  </g>
  <g>
    <g>
      <path fill="#EFEFEF" d="M248,7.1L243.7,0C241.3,1.5,213,12.2,213,39.6c0,7.2,0.3,24.2,18.9,24.2c11.2,0,13.9-10.3,13.9-13.6 c0-22-21.4-14.2-21.4-14.2C224.5,18,244.3,9.2,248,7.1z"/>
    </g>
    <g>
      <path fill="#EFEFEF" d="M291.7,7.1L287.4,0c-2.4,1.5-30.7,12.2-30.7,39.6c0,7.2,0.3,24.2,18.9,24.2c11.2,0,13.9-10.3,13.9-13.6 c0-22-21.4-14.2-21.4-14.2C268.2,18,288,9.2,291.7,7.1z"/>
    </g>
  </g>
  <path d="M295,20.9l19.4-19.4c0.3-0.3,0.3-0.9,0-1.2s-0.9-0.3-1.2,0l-20,20c-0.3,0.3-0.3,0.9,0,1.2l20,20c0.2,0.2,0.4,0.2,0.6,0.2	s0.4-0.1,0.6-0.2c0.3-0.3,0.3-0.9,0-1.2L295,20.9z"/>
  <path d="M335.7,20.9L316.2,1.4c-0.3-0.3-0.3-0.9,0-1.2s0.9-0.3,1.2,0l20,20c0.3,0.3,0.3,0.9,0,1.2l-20,20c-0.2,0.2-0.4,0.2-0.6,0.2	s-0.4-0.1-0.6-0.2c-0.3-0.3-0.3-0.9,0-1.2L335.7,20.9z"/>
  <polygon fill="#D22856" points="370,0 339,30.6 339,73 413,0"/>
  <path fill="#3DC644" d="M30.6,58.4c-0.6-0.5-1.5-0.5-2,0L9.5,75.9l-7-6.4c-0.6-0.5-1.5-0.5-2,0c-0.6,0.5-0.6,1.3,0,1.8l8,7.3	c0.3,0.3,0.6,0.4,1,0.4s0.7-0.1,1-0.4l20.1-18.3C31.1,59.7,31.1,58.9,30.6,58.4z"/>
  <path fill="#F25B26" d="M15.6,93.1l10.9-10.5c0.6-0.6,0.6-1.5,0-2.1s-1.5-0.6-2.1,0L13.5,91L2.6,80.5c-0.6-0.6-1.5-0.6-2.1,0	s-0.6,1.5,0,2.1l10.9,10.5L0.5,103.6c-0.6,0.6-0.6,1.5,0,2.1c0.3,0.3,0.7,0.4,1.1,0.4s0.8-0.1,1.1-0.4l10.9-10.5l10.9,10.5	c0.3,0.3,0.7,0.4,1.1,0.4s0.8-0.1,1.1-0.4c0.6-0.6,0.6-1.5,0-2.1L15.6,93.1z"/>
  <polygon fill="#D22856" points="433,0 414,19.1 414,61 475.1,0"/>
  <g>
    <circle fill="#FFFFFF" cx="50" cy="76" r="18"/>
    <circle fill="#D22856" cx="50" cy="76" r="7.9"/>
  </g>
  <g id="W6EeEF_1_">
    <g>
      <path fill="#D22856" d="M487.3,0.2c1.7-0.5,3.1,0.3,3.7,1.2c0.7-0.2,1.4-0.5,2.1-0.7c0,0.8-0.5,1.5-0.9,1.7 c0.7,0.2,1.3-0.5,1.3-0.5c-0.2,1-1,1.7-1.6,2c-0.2,6.6-3.3,11-10.4,10.8c-0.5,0,0.1,0-0.5,0c-0.4,0-4.3-0.4-5-1.8 c2.3,0.2,4-0.4,4.8-1.1c-1-0.3-2.8-0.5-3.1-2.9c0.4,0.1,0.6,0.2,1.2,0.1c-1.2-0.8-2.6-1.5-2.5-3.7c0.3,0.3,1.1,0.5,1.4,0.5 c-0.7-0.2-2-3.3-0.9-4.8c1.9,1.8,3.8,3.5,7.4,3.7C484.5,2.3,485.5,0.8,487.3,0.2z"/>
    </g>
  </g>
  <path fill="#D22856" d="M482.3,19.4c0.8,0,1.6,0,2.4,0c0-1.1,0-2.2,0-3.4c-1,0-1.9,0-2.9,0c-3.1,0.2-4.3,2.4-3.8,6.1h-2v3.5h2	c0,3.1,0,6.2,0,9.3c1.3,0,2.6,0,3.8,0c0-3.1,0-6.2,0-9.3h2.9v-3.5h-2.9C481.8,21.1,481.8,19.7,482.3,19.4z"/>
  <path fill="#D22856" d="M477.8,49.8c-1,0.5-1.8,0-1.8-1.1V37.3c0-1.1,0.8-1.6,1.8-1.1l12.1,5.9c1,0.5,1,1.3,0,1.7L477.8,49.8z"/>
  <g>
    <path fill="#D22856" d="M75.2,70c-0.2,0-0.4-0.1-0.6-0.2c-3.8-4.3-4.6-5.3-4.9-5.6l0,0c-0.5-0.7-0.8-1.5-0.8-2.4 c0-2.1,1.7-3.8,3.8-3.8c0.9,0,1.8,0.3,2.5,0.9c0.7-0.6,1.6-0.9,2.5-0.9c2.1,0,3.8,1.7,3.8,3.8c0,0.9-0.3,1.8-0.9,2.4l-4.9,5.6 C75.6,69.9,75.4,70,75.2,70L75.2,70z M71,63.3c0.2,0.3,2.5,2.8,4.2,4.9l4.3-4.9c0.3-0.4,0.5-0.9,0.5-1.4c0-1.3-1-2.3-2.3-2.3 c-0.7,0-1.4,0.3-1.9,0.9c-0.1,0.2-0.4,0.3-0.6,0.3s-0.4-0.1-0.6-0.3c-0.4-0.6-1.1-0.9-1.9-0.9c-1.3,0-2.3,1-2.3,2.3 C70.5,62.5,70.7,63,71,63.3L71,63.3z"/>
  </g>
  <path fill="#D22856" d="M104.4,58.3c-0.4-0.4-1-0.4-1.4,0L89.6,71.7l-4.9-4.9c-0.4-0.4-1-0.4-1.4,0s-0.4,1,0,1.4l5.6,5.6	c0.2,0.2,0.5,0.3,0.7,0.3s0.5-0.1,0.7-0.3l14.1-14C104.8,59.3,104.8,58.7,104.4,58.3z"/>
  <g>
    <g>
      <g>
        <path fill="#D22856" d="M120.9,80.8c1.2-1,0.9-1.8-0.7-1.8h-10.5c-1.6,0-1.9,0.8-0.7,1.8l3.7,3.1c1.2,1,3.2,1,4.4,0L120.9,80.8z"/>
      </g>
      <g>
        <path fill="#D22856" d="M117.9,86c-1.2,1-2.2,1.8-2.2,1.8c0,0,0,0,0,0c-0.1,0.1-0.2,0.1-0.2,0.1c0,0-0.1,0-0.1,0 c-0.1,0-0.2,0.1-0.3,0.1c0,0,0,0,0,0c0,0,0,0,0,0c0,0,0,0,0,0c0,0,0,0,0,0c-0.1,0-0.2,0-0.3-0.1c0,0-0.1,0-0.1,0 c-0.1,0-0.2-0.1-0.2-0.1c0,0,0,0,0,0c0,0-1-0.8-2.2-1.8l-3.9-3.2c-1.2-1-2.2-0.5-2.2,1v6.3c0,1.6,1.3,2.8,2.8,2.8h12.3 c1.6,0,2.8-1.3,2.8-2.8v-6.3c0-1.6-1-2-2.2-1L117.9,86z"/>
      </g>
    </g>
  </g>
  <path fill="#D22856" d="M115.8,58c-3.5,0-7,0.6-8.3,1.9c-1.1,1-1.4,2.9-1.5,4c0,0,0,0.1,0,0.2c0,0.5,0.4,0.8,0.8,0.8	c0.1,0,2-0.2,3.2-0.3c0,0,0.1,0,0.1,0c0.4,0,0.8-0.4,0.8-0.8l0-1.6c0-0.5,0.4-0.9,0.9-0.9h8c0.5,0,0.9,0.4,0.9,0.9l0,1.6	c0,0.4,0.4,0.8,0.8,0.8c0,0,0.1,0,0.1,0c1.2,0.1,3.2,0.3,3.2,0.3c0.5,0,0.8-0.4,0.8-0.8c0-0.1,0-0.2,0-0.2c-0.1-1.2-0.5-3-1.5-4	C122.9,58.6,119.4,58,115.8,58z M115.8,68.7c-0.9,0-1.6,0.7-1.6,1.6c0,0.9,0.7,1.6,1.6,1.6c0.9,0,1.6-0.7,1.6-1.6	C117.5,69.4,116.8,68.7,115.8,68.7z M114.6,65v-1c0-0.6-0.5-1-1-1c-0.6,0-1,0.5-1,1v1l-5.5,5.9c-0.4,0.4-0.6,0.9-0.6,1.5V74	c0,0.9,0.7,1.6,1.6,1.6h0.4v1c0,0.6,0.5,1,1,1c0.6,0,1-0.5,1-1v-1h10.7v1c0,0.6,0.5,1,1,1c0.6,0,1-0.5,1-1v-1h0.4	c0.9,0,1.6-0.7,1.6-1.6v-1.6c0-0.6-0.2-1.1-0.6-1.5l-5.5-5.9v-1c0-0.6-0.5-1-1-1c-0.6,0-1,0.5-1,1v1C117.1,65,114.6,65,114.6,65z M115.8,67c1.8,0,3.3,1.5,3.3,3.3c0,1.8-1.5,3.3-3.3,3.3c-1.8,0-3.3-1.5-3.3-3.3C112.6,68.5,114,67,115.8,67z"/>
</svg>
