<?xml version="1.0" encoding="utf-8"?>
<!-- Generator: Adobe Illustrator 22.0.1, SVG Export Plug-In . SVG Version: 6.00 Build 0)  -->
<svg version="1.1" id="Слой_1" xmlns="http://www.w3.org/2000/svg" xmlns:xlink="http://www.w3.org/1999/xlink" x="0px" y="0px"
	 width="500px" height="200px" viewBox="0 0 500 200" enable-background="new 0 0 500 200" xml:space="preserve">
<g id="miu">
	<g id="editor_list_view_hambuger_menu_glyph">
		<g>
			<path id="path-1" fill="#FFFFFF" d="M1.1,0C0.5,0,0,0.4,0,1v2c0,0.6,0.5,1,1.1,1h47.7c0.6,0,1.1-0.4,1.1-1V1c0-0.6-0.5-1-1.1-1
				H1.1z M1.1,10C0.5,10,0,10.4,0,11v2c0,0.6,0.5,1,1.1,1h47.7c0.6,0,1.1-0.4,1.1-1v-2c0-0.6-0.5-1-1.1-1H1.1z M1.1,20
				C0.5,20,0,20.4,0,21v2c0,0.6,0.5,1,1.1,1h47.7c0.6,0,1.1-0.4,1.1-1v-2c0-0.6-0.5-1-1.1-1H1.1z"/>
		</g>
		<g>
			<path id="path-1_1_" fill="#FFFFFF" d="M1.1,0C0.5,0,0,0.4,0,1v2c0,0.6,0.5,1,1.1,1h47.7c0.6,0,1.1-0.4,1.1-1V1
				c0-0.6-0.5-1-1.1-1H1.1z M1.1,10C0.5,10,0,10.4,0,11v2c0,0.6,0.5,1,1.1,1h47.7c0.6,0,1.1-0.4,1.1-1v-2c0-0.6-0.5-1-1.1-1H1.1z
				 M1.1,20C0.5,20,0,20.4,0,21v2c0,0.6,0.5,1,1.1,1h47.7c0.6,0,1.1-0.4,1.1-1v-2c0-0.6-0.5-1-1.1-1H1.1z"/>
		</g>
	</g>
</g>
<g id="miu_1_">
	<g id="editor_list_view_hambuger_menu_glyph_1_">
		<g>
			<path id="path-1_3_" fill="#D22856" d="M1.1,26C0.5,26,0,26.4,0,27v2c0,0.6,0.5,1,1.1,1h47.7c0.6,0,1.1-0.4,1.1-1v-2
				c0-0.6-0.5-1-1.1-1H1.1z M1.1,36C0.5,36,0,36.4,0,37v2c0,0.6,0.5,1,1.1,1h47.7c0.6,0,1.1-0.4,1.1-1v-2c0-0.6-0.5-1-1.1-1H1.1z
				 M1.1,46C0.5,46,0,46.4,0,47v2c0,0.6,0.5,1,1.1,1h47.7c0.6,0,1.1-0.4,1.1-1v-2c0-0.6-0.5-1-1.1-1H1.1z"/>
		</g>
		<g>
			<path id="path-1_2_" fill="#D22856" d="M1.1,26C0.5,26,0,26.4,0,27v2c0,0.6,0.5,1,1.1,1h47.7c0.6,0,1.1-0.4,1.1-1v-2
				c0-0.6-0.5-1-1.1-1H1.1z M1.1,36C0.5,36,0,36.4,0,37v2c0,0.6,0.5,1,1.1,1h47.7c0.6,0,1.1-0.4,1.1-1v-2c0-0.6-0.5-1-1.1-1H1.1z
				 M1.1,46C0.5,46,0,46.4,0,47v2c0,0.6,0.5,1,1.1,1h47.7c0.6,0,1.1-0.4,1.1-1v-2c0-0.6-0.5-1-1.1-1H1.1z"/>
		</g>
	</g>
</g>
<path fill="#FFFFFF" d="M66.1,11.9l8.6-8.6C75,3,75,2.5,74.7,2.2l-2.1-2.1C72.4,0.1,72.2,0,72,0s-0.4,0.1-0.5,0.2l-8.6,8.6l-8.6-8.6
	c-0.3-0.3-0.8-0.3-1.1,0l-2.1,2.1c-0.3,0.3-0.3,0.8,0,1.1l8.6,8.6l-8.6,8.6c-0.3,0.3-0.3,0.8,0,1.1l2.1,2.1c0.1,0.1,0.3,0.2,0.5,0.2
	s0.4-0.1,0.5-0.2l8.6-8.6l8.6,8.6c0.1,0.1,0.3,0.2,0.5,0.2s0.4-0.1,0.5-0.2l2.1-2.1c0.3-0.3,0.3-0.8,0-1.1L66.1,11.9z"/>
<path fill="#D22856" d="M66.1,36.9l8.6-8.6c0.3-0.3,0.3-0.8,0-1.1l-2.1-2.1c-0.2,0-0.4-0.1-0.6-0.1s-0.4,0.1-0.5,0.2l-8.6,8.6
	l-8.6-8.6c-0.3-0.3-0.8-0.3-1.1,0l-2.1,2.1c-0.3,0.3-0.3,0.8,0,1.1l8.6,8.6l-8.6,8.6c-0.3,0.3-0.3,0.8,0,1.1l2.1,2.1
	c0.1,0.1,0.3,0.2,0.5,0.2s0.4-0.1,0.5-0.2l8.6-8.6l8.6,8.6c0.1,0.1,0.3,0.2,0.5,0.2s0.4-0.1,0.5-0.2l2.1-2.1c0.3-0.3,0.3-0.8,0-1.1
	L66.1,36.9z"/>
<path fill="#FFFFFF" d="M114.6,30.1c0.1,8.6,7.5,11.4,7.6,11.5c-0.1,0.2-1.2,4.1-3.9,8.1c-2.4,3.5-4.8,6.9-8.7,7
	c-3.8,0.1-5-2.3-9.4-2.3s-5.7,2.2-9.3,2.3c-3.7,0.1-6.6-3.7-9-7.2c-4.9-7-8.6-19.9-3.6-28.6c2.5-4.3,6.9-7,11.7-7.1
	c3.7-0.1,7.1,2.5,9.4,2.5c2.2,0,6.4-3,10.9-2.6c1.8,0.1,7,0.7,10.4,5.6C120.5,19.5,114.5,23,114.6,30.1 M107.5,9.1
	c2-2.4,3.3-5.7,3-9.1c-2.9,0.1-6.3,1.9-8.4,4.3c-1.8,2.1-3.4,5.5-3,8.8C102.2,13.3,105.5,11.5,107.5,9.1"/>
<g>
	<path fill="#A4C639" d="M158.1,14h-26.2c0,0.1,0,0.2,0,0.3v18.8c0,1.9,1.5,3.5,3.3,3.6v7.4c0,1.6,1.3,2.9,2.9,2.9
		c1.6,0,2.9-1.3,2.9-2.9v-7.4h8.1v7.4c0,1.6,1.3,2.9,2.9,2.9c1.6,0,2.9-1.3,2.9-2.9v-7.4c1.9-0.1,3.3-1.7,3.3-3.6V14.3
		C158.2,14.2,158.2,14.1,158.1,14z"/>
	<path id="c-4-9-2-9-2-9" fill="#A4C639" d="M126.9,15.7L126.9,15.7c1.6,0,2.9,1.3,2.9,2.9V31c0,1.6-1.3,2.9-2.9,2.9l0,0
		c-1.6,0-2.9-1.3-2.9-2.9V18.6C124,17,125.3,15.7,126.9,15.7z"/>
	<path id="c-4-1-7-3-8-4" fill="#A4C639" d="M163.2,15.7L163.2,15.7c1.6,0,2.9,1.3,2.9,2.9V31c0,1.6-1.3,2.9-2.9,2.9l0,0
		c-1.6,0-2.9-1.3-2.9-2.9V18.6C160.3,17,161.6,15.7,163.2,15.7z"/>
	<path fill="#A4C639" d="M132,12h26c0-2.8-1.2-5.3-3.2-7.3l2.4-4.2c0.1-0.1,0-0.3-0.1-0.4s-0.3,0-0.4,0.1l-2.4,4.1
		c-2.1-1.9-6.2-3.4-9.4-3.4l0,0c-3,0-7.3,1.5-9.4,3.4l-2.4-4.1C133.2,0,133,0,132.9,0c-0.1,0.1-0.2,0.3-0.1,0.4l2.4,4.2
		C133.3,6.6,132.1,9.2,132,12z M149.3,6.8c0-0.8,0.7-1.5,1.5-1.5s1.5,0.6,1.5,1.5l0,0c0,0.8-0.7,1.5-1.5,1.5S149.3,7.6,149.3,6.8
		L149.3,6.8z M138.2,6.8c0-0.8,0.7-1.5,1.5-1.5s1.5,0.6,1.5,1.5l0,0c0,0.8-0.7,1.5-1.5,1.5S138.2,7.6,138.2,6.8L138.2,6.8z"/>
</g>
<g>
	<path id="path5058" fill="#F05423" d="M188.9,20H168V0h20.9V20z"/>
	<path id="path5060" fill="#84C441" d="M211.9,20H191V0h20.9V20z"/>
	<path id="path5062" fill="#2DABE2" d="M188.9,42H168V22h20.9V42z"/>
	<path id="path5064" fill="#F9BC15" d="M211.9,42H191V22h20.9V42z"/>
</g>
<g>
	<g>
		<path fill="#EFEFEF" d="M248,7.1L243.7,0C241.3,1.5,213,12.2,213,39.6c0,7.2,0.3,24.2,18.9,24.2c11.2,0,13.9-10.3,13.9-13.6
			c0-22-21.4-14.2-21.4-14.2C224.5,18,244.3,9.2,248,7.1z"/>
	</g>
	<g>
		<path fill="#EFEFEF" d="M291.7,7.1L287.4,0c-2.4,1.5-30.7,12.2-30.7,39.6c0,7.2,0.3,24.2,18.9,24.2c11.2,0,13.9-10.3,13.9-13.6
			c0-22-21.4-14.2-21.4-14.2C268.2,18,288,9.2,291.7,7.1z"/>
	</g>
</g>
<path d="M295,20.9l19.4-19.4c0.3-0.3,0.3-0.9,0-1.2c-0.3-0.3-0.9-0.3-1.2,0l-20,20c-0.3,0.3-0.3,0.9,0,1.2l20,20
	c0.2,0.2,0.4,0.2,0.6,0.2c0.2,0,0.4-0.1,0.6-0.2c0.3-0.3,0.3-0.9,0-1.2L295,20.9z"/>
<path d="M335.7,20.9L316.2,1.4c-0.3-0.3-0.3-0.9,0-1.2c0.3-0.3,0.9-0.3,1.2,0l20,20c0.3,0.3,0.3,0.9,0,1.2l-20,20
	c-0.2,0.2-0.4,0.2-0.6,0.2c-0.2,0-0.4-0.1-0.6-0.2c-0.3-0.3-0.3-0.9,0-1.2L335.7,20.9z"/>
<polygon fill="#D22856" points="370,0 339,30.6 339,73 413,0 "/>
<path fill="#3DC644" d="M444.6,0.4c-0.6-0.5-1.5-0.5-2,0l-19.1,17.5l-7-6.4c-0.6-0.5-1.5-0.5-2,0c-0.6,0.5-0.6,1.3,0,1.8l8,7.3
	c0.3,0.3,0.6,0.4,1,0.4c0.4,0,0.7-0.1,1-0.4l20.1-18.3C445.1,1.7,445.1,0.9,444.6,0.4z"/>
<path fill="#F25B26" d="M429.6,35l10.9-10.5c0.6-0.6,0.6-1.5,0-2.1s-1.5-0.6-2.1,0l-10.9,10.5l-10.9-10.5c-0.6-0.6-1.5-0.6-2.1,0
	c-0.6,0.6-0.6,1.5,0,2.1L425.4,35l-10.9,10.5c-0.6,0.6-0.6,1.5,0,2.1c0.3,0.3,0.7,0.4,1.1,0.4c0.4,0,0.8-0.1,1.1-0.4l10.9-10.5
	l10.9,10.5c0.3,0.3,0.7,0.4,1.1,0.4c0.4,0,0.8-0.1,1.1-0.4c0.6-0.6,0.6-1.5,0-2.1L429.6,35z"/>
</svg>
